<svg width="100" height="100" viewBox="0 0 100 100" fill="none" xmlns="http://www.w3.org/2000/svg">
<path fill-rule="evenodd" clip-rule="evenodd" d="M90 0C95.5228 0 100 4.47716 100 10V90C100 95.5229 95.5228 100 90 100H37.6534L51.364 87.5951C59.6307 80.1157 57.9062 66.6866 48.0179 61.5386L36.2613 55.4179C23.2674 48.653 28.0769 29 42.7263 29H67.9998C70.2089 29 71.9998 30.7909 71.9998 33L71.9998 99.9999H83.9998L83.9998 33C83.9998 24.1634 76.8363 17 67.9998 17H42.7263C15.5203 17 6.58834 53.4985 30.7198 66.0618L42.4765 72.1826C44.9486 73.4696 45.3797 76.8268 43.313 78.6967L19.7674 100H10C4.47715 100 0 95.5228 0 90V10C0 4.47715 4.47716 0 10 0H90Z" fill="#1C3442"/>
<rect width="12" height="12" transform="matrix(-1 0 0 1 84 76)" fill="#FFAC2F"/>
</svg>
