<svg width="293" height="94" viewBox="0 0 293 94" fill="none" xmlns="http://www.w3.org/2000/svg">
<path fill-rule="evenodd" clip-rule="evenodd" d="M71.9099 13.4232L53.3013 2.67949C47.1132 -0.893164 39.4893 -0.893164 33.3013 2.67949L10 16.1325C3.81198 19.7051 0 26.3077 0 33.453V60.359C0 67.5043 3.81198 74.1068 10 77.6795L14.0567 80.0216L34.3127 56.7036L25.9234 47.1092C24.5846 45.5781 23.8467 43.6133 23.8467 41.5794C23.8467 36.9398 27.6079 33.1787 32.2475 33.1787H54.7485L71.9099 13.4232ZM75.4386 15.4605L52.0109 42.4295L65.9782 54.2473C67.5092 55.5427 68.3922 57.4465 68.3922 59.4519C68.3922 63.2172 65.3398 66.2696 61.5745 66.2696H31.3013L17.5854 82.0589L33.3013 91.1325C39.4893 94.7051 47.1132 94.7051 53.3013 91.1325L76.6025 77.6795C82.7906 74.1068 86.6025 67.5043 86.6025 60.359V33.453C86.6025 26.3077 82.7906 19.7051 76.6025 16.1325L75.4386 15.4605Z" fill="#0092EB"/>
<path fill-rule="evenodd" clip-rule="evenodd" d="M17.5859 82.0589L33.3018 91.1325C39.4899 94.7051 47.1138 94.7051 53.3018 91.1325L76.6031 77.6795C82.7911 74.1068 86.6031 67.5043 86.6031 60.359V33.453C86.6031 26.3077 82.7911 19.7051 76.6031 16.1325L75.4391 15.4604L52.0115 42.4295L65.9788 54.2473C67.5098 55.5427 68.3928 57.4465 68.3928 59.452C68.3928 63.2172 65.3404 66.2696 61.5751 66.2696H31.3019L17.5859 82.0589Z" fill="#FFAC2F"/>
<path d="M154.082 57.7185C154.082 59.3227 153.874 60.7706 153.457 62.0623C153.061 63.3331 152.53 64.4581 151.863 65.4373C151.197 66.4164 150.415 67.2498 149.52 67.9373C148.624 68.6248 147.697 69.1873 146.738 69.6248C145.78 70.0623 144.801 70.3852 143.801 70.5935C142.822 70.8018 141.895 70.906 141.02 70.906H109.676V62.781H141.02C142.582 62.781 143.79 62.3227 144.645 61.406C145.52 60.4893 145.957 59.2602 145.957 57.7185C145.957 56.9685 145.842 56.281 145.613 55.656C145.384 55.031 145.051 54.4893 144.613 54.031C144.197 53.5727 143.676 53.2185 143.051 52.9685C142.447 52.7185 141.77 52.5935 141.02 52.5935H122.332C121.02 52.5935 119.603 52.3643 118.082 51.906C116.561 51.4268 115.145 50.6664 113.832 49.6248C112.54 48.5831 111.457 47.2185 110.582 45.531C109.728 43.8435 109.301 41.781 109.301 39.3435C109.301 36.906 109.728 34.8539 110.582 33.1873C111.457 31.4998 112.54 30.1352 113.832 29.0935C115.145 28.031 116.561 27.2706 118.082 26.8123C119.603 26.3331 121.02 26.0935 122.332 26.0935H149.988V34.2185H122.332C120.79 34.2185 119.582 34.6873 118.707 35.6248C117.853 36.5623 117.426 37.8018 117.426 39.3435C117.426 40.906 117.853 42.1456 118.707 43.0623C119.582 43.9581 120.79 44.406 122.332 44.406H141.02H141.082C141.957 44.4268 142.884 44.5518 143.863 44.781C144.842 44.9893 145.811 45.3227 146.77 45.781C147.749 46.2393 148.676 46.8227 149.551 47.531C150.426 48.2185 151.197 49.0518 151.863 50.031C152.551 51.0102 153.092 52.1352 153.488 53.406C153.884 54.6768 154.082 56.1143 154.082 57.7185ZM169.02 70.906H160.895V26.0935H169.02V70.906ZM222.488 70.906H214.363V59.906H185.801V70.906H177.676V48.4998C177.676 45.2289 178.238 42.2185 179.363 39.4685C180.488 36.7185 182.051 34.3539 184.051 32.3748C186.051 30.3956 188.415 28.8539 191.145 27.7498C193.874 26.6456 196.853 26.0935 200.082 26.0935H218.395C218.957 26.0935 219.488 26.1977 219.988 26.406C220.488 26.6143 220.926 26.906 221.301 27.281C221.676 27.656 221.967 28.0935 222.176 28.5935C222.384 29.0935 222.488 29.6248 222.488 30.1873V70.906ZM185.801 51.781H214.363V34.2185H200.082C199.832 34.2185 199.301 34.2602 198.488 34.3435C197.697 34.406 196.77 34.5831 195.707 34.8748C194.665 35.1664 193.561 35.6143 192.395 36.2185C191.228 36.8227 190.155 37.656 189.176 38.7185C188.197 39.781 187.384 41.1143 186.738 42.7185C186.113 44.3018 185.801 46.2289 185.801 48.4998V51.781ZM273.113 70.906H236.051C235.467 70.906 234.926 70.8018 234.426 70.5935C233.926 70.3852 233.488 70.1039 233.113 69.7498C232.759 69.3748 232.478 68.9373 232.27 68.4373C232.061 67.9373 231.957 67.3956 231.957 66.8123V26.0935H240.082V62.781H273.113V70.906ZM287.27 70.906H279.145V26.0935H287.27V70.906Z" fill="black"/>
</svg>
