<?xml version="1.0" encoding="utf-8"?>
<svg viewBox="124.571 166.238 86.603 93.812" xmlns="http://www.w3.org/2000/svg">
  <path fill-rule="evenodd" clip-rule="evenodd" d="M 196.481 179.661 L 177.872 168.917 C 171.684 165.345 164.06 165.345 157.872 168.917 L 134.571 182.37 C 128.383 185.943 124.571 192.546 124.571 199.691 L 124.571 226.597 C 124.571 233.742 128.383 240.345 134.571 243.917 L 138.628 246.259 L 158.884 222.941 L 150.494 213.347 C 149.156 211.816 148.418 209.851 148.418 207.817 C 148.418 203.178 152.179 199.417 156.819 199.417 L 179.32 199.417 L 196.481 179.661 Z M 200.01 181.698 L 176.582 208.667 L 190.549 220.485 C 192.08 221.781 192.963 223.684 192.963 225.69 C 192.963 229.455 189.911 232.507 186.146 232.507 L 155.872 232.507 L 142.156 248.297 L 157.872 257.37 C 164.06 260.943 171.684 260.943 177.872 257.37 L 201.174 243.917 C 207.362 240.345 211.174 233.742 211.174 226.597 L 211.174 199.691 C 211.174 192.546 207.362 185.943 201.174 182.37 L 200.01 181.698 Z" fill="#0092EB"/>
  <path fill-rule="evenodd" clip-rule="evenodd" d="M 142.157 248.297 L 157.873 257.37 C 164.061 260.943 171.685 260.943 177.873 257.37 L 201.174 243.917 C 207.362 240.345 211.174 233.742 211.174 226.597 L 211.174 199.691 C 211.174 192.546 207.362 185.943 201.174 182.37 L 200.01 181.698 L 176.583 208.667 L 190.55 220.485 C 192.081 221.781 192.964 223.684 192.964 225.69 C 192.964 229.455 189.911 232.507 186.146 232.507 L 155.873 232.507 L 142.157 248.297 Z" fill="#FFAC2F"/>
</svg>